<?xml version="1.0" encoding="UTF-8"?>
<svg id="Navbar" xmlns="http://www.w3.org/2000/svg" xmlns:xlink="http://www.w3.org/1999/xlink" version="1.1" viewBox="0 0 1080 300">
  <!-- Generator: Adobe Illustrator 29.1.0, SVG Export Plug-In . SVG Version: 2.1.0 Build 142)  -->
  <defs>
    <style>
      .st0 {
        fill: #231f20;
      }

      .st1 {
        fill: url(#linear-gradient);
      }

      .st2 {
        fill: #fff;
      }
    </style>
    <linearGradient id="linear-gradient" x1="4.4" y1="-5449.4" x2="293.5" y2="-5739.5" gradientTransform="translate(0 -5445) scale(1 -1)" gradientUnits="userSpaceOnUse">
      <stop offset="0" stop-color="#ffca06"/>
      <stop offset=".9" stop-color="#f47a20"/>
    </linearGradient>
  </defs>
  <path class="st2" d="M390.6,117.7l-9.9,12.9h-25.1c-17.4,0-30.1-11-30.1-25.5s12.8-24.5,30.1-24.5h35l-9.9,13h-25.1c-8.4,0-14.7,5-14.7,12.2s6.2,12,14.7,12h35Z"/>
  <path class="st2" d="M467.6,80.6l-29.6,33.4v16.5h-15.6v-16.5l-30.5-33.4h19.9l12,13.9c1.6,1.8,5.8,6.3,6.8,7.8,1-1.4,2.7-3.6,6.3-7.9l11.4-13.8h19.3Z"/>
  <path class="st2" d="M537.2,116c0,8.3-4.6,14.6-20.3,14.6h-44v-30.4h44.3c2.2,0,4.3-.8,4.3-3.4s-2.2-3.2-4.3-3.2h-44.2l10.5-13h33.1c12,0,19.7,4.6,19.7,13.8s-3.4,9.2-6.8,10.5c4.1,1.2,7.7,5.1,7.7,11.1ZM488.4,110.8v6.9h28.5c3.4,0,4.8-1.2,4.8-3.5s-1.4-3.4-4.8-3.4h-28.5Z"/>
  <path class="st2" d="M603,117.7l-9.9,12.9h-48.1v-50h57.9l-10,13h-32.4v6h39.6l-8.9,11.4h-30.7v6.8h42.5Z"/>
  <path class="st2" d="M679.3,130.6h-20.7l-11.1-13.2h-23.8v13.2h-15.5v-25.6h43.5c4.8,0,8.5-2.2,8.5-5.6s-3.2-5.8-8.5-5.8h-43.5l10.1-13h32.1c11.4,0,25.7,3.6,25.7,17.9.2,7.8-5.4,14.6-13.1,15.8,2.5,2,4.8,4.2,7,6.6l9.3,9.7Z"/>
  <path class="st2" d="M759.8,100.5c12.2,0,18.8,4.6,18.8,13.7s-6.2,16.4-21.5,16.4h-46.6l9.9-12.9h37.8c3.7,0,5.3-1,5.3-3.7s-1.6-3.6-5.3-3.6h-27.2c-12.9,0-18.8-5.8-18.8-14.3s6.3-15.6,21.5-15.6h43.4l-9.9,13h-34.7c-3.6,0-5.3.9-5.3,3.4s1.7,3.5,5.3,3.5h27.3Z"/>
  <path class="st2" d="M826.8,117.8h-26.2v12.8h-15.4v-25.6h43c4.8,0,7.5-2.3,7.5-5.8s-2.8-5.7-7.5-5.7h-43l10.2-13h31.4c15.5,0,24.5,7.6,24.5,18.8s-8.9,18.5-24.5,18.5Z"/>
  <path class="st2" d="M868.6,130.6l9.4-12.9h12.5c3,0,6.5,0,8.9.2-1.3-1.8-3.4-4.8-5.1-7.2l-9-13.2-23.5,33.2h-18.3l32.1-45.2c2.1-2.9,5.2-5.6,10-5.6s7.7,2.5,9.9,5.6l31.2,45.2h-58.1Z"/>
  <path class="st2" d="M988.2,117.7l-9.9,12.9h-25.1c-17.3,0-30.1-11-30.1-25.5s12.8-24.5,30.1-24.5h35.1l-9.9,13h-25.1c-8.4,0-14.7,5-14.7,12.2s6.2,12,14.7,12h34.9Z"/>
  <path class="st2" d="M1051.7,117.7l-9.9,12.9h-48.1v-50h57.9l-10,13h-32.4v6h39.6l-8.9,11.4h-30.7v6.8h42.5Z"/>
  <path class="st2" d="M360.5,220.3h-33.5v-31.2h15.5v18.3h18c8.6,0,14.8-4.8,14.8-12s-6.4-12.2-14.8-12.2h-33.5l9.9-13h23.6c17.5,0,30.1,10.1,30.1,24.5s-12.8,25.6-30.1,25.6h0Z"/>
  <path class="st2" d="M414.2,220.3h-15.5v-50h15.5v50Z"/>
  <path class="st2" d="M454.7,189h32v31.2h-34.3c-17.4,0-30.1-11-30.1-25.5s12.8-24.5,30.1-24.5h35.8l-10,13h-25.8c-8.4,0-14.7,5.1-14.7,12.2s6.1,12,14.7,12h18.9v-7.3h-25.9l9.3-11.1h0Z"/>
  <path class="st2" d="M511.3,220.3h-15.5v-50h15.5v50Z"/>
  <path class="st2" d="M583,170.3l-10,13h-17.9v37h-15.5v-37h-23.5l10-13h56.9Z"/>
  <path class="st2" d="M593.2,220.3l9.3-12.9h12.6c3,0,6.5,0,8.9.1-1.3-1.8-3.4-4.9-5.1-7.2l-9-13.2-23.5,33.2h-18.3l32.1-45.2c2.1-2.9,5.2-5.6,10-5.6s7.7,2.5,9.9,5.6l31.2,45.2h-58.1Z"/>
  <path class="st2" d="M711,207.4l-10,12.9h-44.2v-50h15.5v37.2h38.7Z"/>
  <circle id="background" class="st1" cx="149.4" cy="149.9" r="149.6"/>
  <path class="st2" d="M227.4,134.2v64.2c0,16.1-12.7,28.4-30,28.4s-29.5-11.9-29.5-28.4v-34.4h45.1v-29.8h-76.9v64.2c0,1.4.1,2.8.2,4.2h-53.3c1.3-14.2.6-28.6-2.1-42.6-3.5-18.3-7.7-40.4-25.8-52.7-5-3.3-10.6-5.7-16.4-7,0,28.8.2,57.7.3,86.6.6,13.5,4.9,26.6,12.5,37.8,4,5.9,8.8,12.6,19.2,18.6,7.9,4.5,22.8,6,26.2,6,16.6.1,40.7.9,71.8.2,9.4,4.4,19.8,6.7,30.2,6.6,35.6,0,60.5-24.2,60.5-57.8v-45.3l-32-18.8h0Z"/>
  <path class="st2" d="M157.3,79.3c3.8-6.7,5.6-14.4,5.2-22.1l-64.6,1.3c-11.7,1.6-22.4,7.2-30.3,16-6.4,7.3-10.4,16.2-11.7,25.8l65-.7c2,0,25.3-1.3,36.4-20.3h0Z"/>
  <path class="st0" d="M120,192c-1.5,3.3-1.9,7-1.3,10.6v.2h2.3v-.6c-.6-3.3,0-6.8,1.4-9.8,1.9-3.7,5.2-6.5,9.1-8,1.5-.6,3.1-1,4.7-1.2v-2.2c-1.9.1-3.8.6-5.6,1.3-4.6,1.7-8.3,5.2-10.5,9.7h0Z"/>
  <path class="st0" d="M194.2,180.4c-.1-.3-.4-.5-.7-.6s-.6-.1-.9.1c-.3.1-.5.4-.6.6-2.2,5.9-6,8.8-11.6,8.8.4-1.8.7-3.6.9-5.5,0-.2,0-.5.1-.7.1-.9.1-1.9.1-2.8v-2.4c0-.4-.1-.8-.1-1.2-.1-1-.2-1.9-.4-2.9-.1-.2-.1-.4-.1-.7-.1-.4-.1-.8-.3-1.2-.1-.2-.1-.4-.1-.5-.1-.2-.1-.4-.2-.6-.1-.4-.2-.7-.3-1.1-.1-.3-.3-.6-.4-.9-.3-.8-.7-1.5-1.1-2.2-.3-.5-.6-1-.9-1.5-.2-.3-.4-.6-.7-.9-.1-.1-.2-.3-.3-.4-2.2-2.7-4.9-5.1-7.9-6.9-2.8-1.7-5.8-3.2-8.8-4.4-1.7-.7-3.6-1.4-5.5-2.1l-5.9-2.1c-4-1.3-7.7-3.3-11-5.8-1.5-1.2-2.7-2.8-3.6-4.5-.8-1.8-1.2-3.7-1.1-5.6,0-2,.4-3.9,1-5.8.7-1.8,1.5-3.5,2.6-5,1.9-2.7,4.5-4.9,7.4-6.4,2-1.1,4.2-1.8,6.4-2.2.4,0,.9-.2,1.4-.2h1.2c4.1,0,7.3,1.2,9.4,3.7,2.9,3.6,3.6,10.2,2.4,17.5h2.2c1.4-8,.5-14.8-2.9-19-2.6-3.1-6.3-4.6-11.2-4.6h-2.8c-2.6.2-5.1.9-7.4,1.9-3.5,1.6-6.6,3.9-9,6.8-1.4,1.8-2.6,3.7-3.5,5.8-.9,2.2-1.5,4.6-1.7,7-.3,2.6.1,5.3,1.1,7.8s2.5,4.7,4.5,6.6c3.6,3.2,7.8,5.8,12.4,7.5l2.3.9,3.6,1.4c1.8.8,3.6,1.5,5.1,2.3,2.7,1.2,5.4,2.6,7.9,4.2,2.4,1.4,4.5,3.2,6.3,5.3l.3.3c.2.2.3.4.4.5l.6,1c.3.4.6.9.7,1.4.1.3.3.5.4.8.7,1.7,1.1,3.5,1.3,5.3.1.5.1,1,.2,1.5s0,1,.1,1.5v3.1c-.1,1.8-.3,3.7-.6,5.5-1.2-.2-2.4-.4-3.6-.7s-2.4-.5-3.6-.8v2.3c1.1.3,2.2.5,3.3.7s2.3.5,3.4.7c-.5,1.9-1.2,3.7-2.1,5.4-.8,1.6-1.7,3.2-2.8,4.7-.6.8-1.1,1.4-1.5,1.9.2,1.3.4,2.5.8,3.7.1.4.3.9.4,1.3,1.4-1.3,2.7-2.6,3.9-4.1,3-3.7,5.2-7.9,6.6-12.5,6.8.4,11.6-3.1,14.4-10.4.3-.1.3-.4.1-.7h0Z"/>
</svg>